# xmcd
#
# Track frame offsets:
#	150
#	10052
#	21907
#	31662
#	41110
#	54405
#	64230
#	74850
#	85612
#	97192
#	106227
#	119282
#	133285
#	145205
#	153850
#	163432
#	173377
#	185320
#	197020
#	206157
#	215642
#	226527
#	235832
#	249337
#	260262
#	271600
#	282535
#	294807
#	303997
#	315907
#
# Disc length: 4354 seconds
#
# Revision: 0
# Processed by: cddbd v1.4PL0 Copyright (c) Steve Scherf et al.
# Submitted via: audiograbber 1.80
#
DISCID=a411001e
DTITLE=jommy little dickens - country boy disc 4
DYEAR=1900
DGENRE=
TTITLE0=slow suicide 1984
TTITLE1=take me as i am (or let me go) 1954 
TTITLE2=where's willie 1965
TTITLE3=blackeyed joe's 1954
TTITLE4=a ribbon and a rose 1955
TTITLE5=stinky passed the hat around 1955
TTITLE6=salty boogie 1955
TTITLE7=conscience (set me free) 1955
TTITLE8=we could 1955
TTITLE9=hey worm! (you wanna wiggle) 1956
TTITLE10=where did the sunshine go 1956
TTITLE11=i'm braver now 1955
TTITLE12=are you insured beyond the grave 1955
TTITLE13=when they get too rough (they're just right for me) 1955
TTITLE14=i feel for you (but i can't quite reach you) 1997
TTITLE15=big sandy 1956
TTITLE16=it scares me half to death 1956
TTITLE17=you gotta have a heartbreak 1997
TTITLE18=red wing (instrumental) 1956
TTITLE19=country boy bounce (instrumental) 1956
TTITLE20=buddy's boogie (inst.) 1957
TTITLE21=raisin' the dickens (inst.) 1957
TTITLE22=i never thought it would happen to me 1956
TTITLE23=say it now 1957
TTITLE24=i'm coming over tonight 1957
TTITLE25=cornbread and buttermilk 1956
TTITLE26=i don't love you anymore 1997
TTITLE27=happy heartaches 1997
TTITLE28=the last time 1984
TTITLE29=let's quit before we start 1997
EXTD=
EXTT0=
EXTT1=
EXTT2=
EXTT3=
EXTT4=
EXTT5=
EXTT6=
EXTT7=
EXTT8=
EXTT9=
EXTT10=
EXTT11=
EXTT12=
EXTT13=
EXTT14=
EXTT15=
EXTT16=
EXTT17=
EXTT18=
EXTT19=
EXTT20=
EXTT21=
EXTT22=
EXTT23=
EXTT24=
EXTT25=
EXTT26=
EXTT27=
EXTT28=
EXTT29=
PLAYORDER=
